PathFileType	4	(X/Y/Z)	C:\Users\italobelli\Desktop\GitHub\PTbot_officialCBL\Personal_Results\FLX23_noisy1.trc
DataRate	CameraRate	NumFrames	NumMarkers	Units	OrigDataRate	OrigDataStartFrame	OrigNumFrames
106.533333	106.533333	30	9	m	106.533333	401	800
Frame#	Time		gu		centelbow		EpL		centpxt8		centijc7		ij		ts		aa		ai
			X1	Y1	Z1	X2	Y2	Z2	X3	Y3	Z3	X4	Y4	Z4	X5	Y5	Z5	X6	Y6	Z6	X7	Y7	Z7	X8	Y8	Z8	X9	Y9	Z9

401	3.7547	-0.098715	0.064927	0.10451	0.0049362	0.27658	0.19349	-0.021493	0.28893	0.17937	-0.046816	-0.15316	-0.008669	-0.046816	0.031938	-0.008669	0	0	0	-0.13552	-0.018883	0.057519	-0.13189	0.087009	0.11163	-0.10573	-0.064389	0.15709
402	3.7641	-0.098577	0.064951	0.10465	0.0063973	0.27589	0.19402	-0.019981	0.28841	0.17996	-0.046816	-0.15316	-0.008669	-0.046816	0.031938	-0.008669	0	0	0	-0.13574	-0.018713	0.057502	-0.13168	0.087061	0.11181	-0.106	-0.064513	0.15694
403	3.7735	-0.098436	0.064976	0.10479	0.0078686	0.27519	0.19455	-0.018456	0.28788	0.18056	-0.046816	-0.15316	-0.008669	-0.046816	0.031938	-0.008669	0	0	0	-0.13597	-0.018542	0.057484	-0.13146	0.087113	0.11199	-0.10626	-0.064639	0.15679
404	3.7829	-0.098294	0.065	0.10493	0.0093489	0.27447	0.19509	-0.01692	0.28734	0.18117	-0.046816	-0.15316	-0.008669	-0.046816	0.031938	-0.008669	0	0	0	-0.1362	-0.018368	0.057466	-0.13125	0.087165	0.11218	-0.10653	-0.064767	0.15664
405	3.7922	-0.09815	0.065024	0.10507	0.010837	0.27374	0.19563	-0.015373	0.28679	0.18178	-0.046816	-0.15316	-0.008669	-0.046816	0.031938	-0.008669	0	0	0	-0.13643	-0.018193	0.057447	-0.13103	0.087217	0.11237	-0.1068	-0.064897	0.15648
406	3.8016	-0.098005	0.065048	0.10521	0.012333	0.27299	0.19618	-0.013817	0.28623	0.1824	-0.046816	-0.15316	-0.008669	-0.046816	0.031938	-0.008669	0	0	0	-0.13667	-0.018016	0.057427	-0.13081	0.087268	0.11255	-0.10707	-0.065029	0.15632
407	3.811	-0.097858	0.065072	0.10536	0.013834	0.27223	0.19673	-0.012251	0.28566	0.18303	-0.046816	-0.15316	-0.008669	-0.046816	0.031938	-0.008669	0	0	0	-0.1369	-0.017837	0.057407	-0.13059	0.087319	0.11274	-0.10734	-0.065161	0.15616
408	3.8204	-0.097709	0.065096	0.1055	0.01534	0.27145	0.19728	-0.010678	0.28507	0.18366	-0.046816	-0.15316	-0.008669	-0.046816	0.031938	-0.008669	0	0	0	-0.13713	-0.017656	0.057387	-0.13037	0.08737	0.11293	-0.10761	-0.065296	0.156
409	3.8298	-0.097559	0.065121	0.10565	0.01685	0.27067	0.19784	-0.0090988	0.28448	0.18431	-0.046816	-0.15316	-0.008669	-0.046816	0.031938	-0.008669	0	0	0	-0.13736	-0.017474	0.057366	-0.13015	0.08742	0.11312	-0.10788	-0.065431	0.15583
410	3.8392	-0.097408	0.065145	0.1058	0.018363	0.26986	0.19841	-0.0075136	0.28388	0.18495	-0.046816	-0.15316	-0.008669	-0.046816	0.031938	-0.008669	0	0	0	-0.13759	-0.01729	0.057344	-0.12993	0.087469	0.11332	-0.10815	-0.065568	0.15566
411	3.8486	-0.097256	0.06517	0.10595	0.019877	0.26905	0.19898	-0.0059238	0.28327	0.1856	-0.046816	-0.15316	-0.008669	-0.046816	0.031938	-0.008669	0	0	0	-0.13783	-0.017104	0.057322	-0.1297	0.087519	0.11351	-0.10842	-0.065705	0.15549
412	3.8579	-0.097102	0.065195	0.1061	0.021392	0.26822	0.19955	-0.0043303	0.28265	0.18626	-0.046816	-0.15316	-0.008669	-0.046816	0.031938	-0.008669	0	0	0	-0.13806	-0.016917	0.0573	-0.12948	0.087568	0.1137	-0.10869	-0.065843	0.15532
413	3.8673	-0.096948	0.06522	0.10625	0.022907	0.26739	0.20012	-0.0027342	0.28202	0.18693	-0.046816	-0.15316	-0.008669	-0.046816	0.031938	-0.008669	0	0	0	-0.13829	-0.016728	0.057276	-0.12926	0.087616	0.11389	-0.10896	-0.065982	0.15514
414	3.8767	-0.096792	0.065246	0.1064	0.02442	0.26653	0.2007	-0.0011365	0.28138	0.1876	-0.046816	-0.15316	-0.008669	-0.046816	0.031938	-0.008669	0	0	0	-0.13852	-0.016538	0.057253	-0.12903	0.087664	0.11408	-0.10923	-0.066121	0.15497
415	3.8861	-0.096636	0.065272	0.10656	0.02593	0.26567	0.20128	0.00046176	0.28073	0.18827	-0.046816	-0.15316	-0.008669	-0.046816	0.031938	-0.008669	0	0	0	-0.13875	-0.016346	0.057228	-0.12881	0.087712	0.11428	-0.1095	-0.066261	0.15479
416	3.8955	-0.096479	0.065298	0.10671	0.027438	0.2648	0.20186	0.0020596	0.28007	0.18895	-0.046816	-0.15316	-0.008669	-0.046816	0.031938	-0.008669	0	0	0	-0.13897	-0.016153	0.057203	-0.12859	0.087759	0.11447	-0.10977	-0.066401	0.15461
417	3.9049	-0.096321	0.065325	0.10687	0.02894	0.26391	0.20244	0.0036561	0.27941	0.18963	-0.046816	-0.15316	-0.008669	-0.046816	0.031938	-0.008669	0	0	0	-0.1392	-0.015958	0.057178	-0.12837	0.087805	0.11466	-0.11003	-0.06654	0.15443
418	3.9143	-0.096162	0.065352	0.10702	0.030437	0.26302	0.20303	0.0052501	0.27874	0.19032	-0.046816	-0.15316	-0.008669	-0.046816	0.031938	-0.008669	0	0	0	-0.13942	-0.015762	0.057152	-0.12815	0.087851	0.11485	-0.1103	-0.06668	0.15424
419	3.9237	-0.096004	0.06538	0.10718	0.031927	0.26211	0.20362	0.0068408	0.27806	0.19101	-0.046816	-0.15316	-0.008669	-0.046816	0.031938	-0.008669	0	0	0	-0.13965	-0.015565	0.057125	-0.12793	0.087896	0.11504	-0.11056	-0.06682	0.15406
420	3.933	-0.095844	0.065409	0.10733	0.03341	0.26119	0.20421	0.0084269	0.27737	0.1917	-0.046816	-0.15316	-0.008669	-0.046816	0.031938	-0.008669	0	0	0	-0.13986	-0.015367	0.057098	-0.12771	0.087941	0.11523	-0.11083	-0.066959	0.15387
421	3.9424	-0.095685	0.065438	0.10749	0.034883	0.26026	0.2048	0.010008	0.27667	0.1924	-0.046816	-0.15316	-0.008669	-0.046816	0.031938	-0.008669	0	0	0	-0.14008	-0.015167	0.05707	-0.1275	0.087985	0.11542	-0.11109	-0.067098	0.15368
422	3.9518	-0.095525	0.065467	0.10764	0.036347	0.25933	0.20539	0.011582	0.27597	0.1931	-0.046816	-0.15316	-0.008669	-0.046816	0.031938	-0.008669	0	0	0	-0.1403	-0.014966	0.057042	-0.12728	0.088029	0.11561	-0.11135	-0.067236	0.15349
423	3.9612	-0.095365	0.065498	0.1078	0.0378	0.25838	0.20598	0.013149	0.27526	0.19381	-0.046816	-0.15316	-0.008669	-0.046816	0.031938	-0.008669	0	0	0	-0.14051	-0.014764	0.057013	-0.12707	0.088071	0.1158	-0.1116	-0.067374	0.1533
424	3.9706	-0.095205	0.065529	0.10795	0.039241	0.25742	0.20657	0.014707	0.27455	0.19452	-0.046816	-0.15316	-0.008669	-0.046816	0.031938	-0.008669	0	0	0	-0.14072	-0.014561	0.056983	-0.12686	0.088114	0.11598	-0.11186	-0.06751	0.15311
425	3.98	-0.095045	0.065561	0.10811	0.040668	0.25646	0.20716	0.016256	0.27383	0.19523	-0.046816	-0.15316	-0.008669	-0.046816	0.031938	-0.008669	0	0	0	-0.14092	-0.014357	0.056953	-0.12665	0.088155	0.11616	-0.11211	-0.067646	0.15292
426	3.9894	-0.094885	0.065594	0.10826	0.042082	0.25548	0.20775	0.017794	0.2731	0.19594	-0.046816	-0.15316	-0.008669	-0.046816	0.031938	-0.008669	0	0	0	-0.14113	-0.014152	0.056922	-0.12645	0.088196	0.11635	-0.11236	-0.06778	0.15273
427	3.9987	-0.094725	0.065627	0.10842	0.043481	0.2545	0.20834	0.019321	0.27237	0.19665	-0.046816	-0.15316	-0.008669	-0.046816	0.031938	-0.008669	0	0	0	-0.14132	-0.013946	0.05689	-0.12625	0.088236	0.11653	-0.11261	-0.067913	0.15254
428	4.0081	-0.094565	0.065664	0.10858	0.04488	0.25348	0.20894	0.020854	0.2716	0.19738	-0.046816	-0.15316	-0.008669	-0.046816	0.031938	-0.008669	0	0	0	-0.14152	-0.013737	0.056856	-0.12605	0.088273	0.1167	-0.11285	-0.068046	0.15234
429	4.0175	-0.094401	0.065709	0.10873	0.046305	0.25239	0.20955	0.022421	0.27076	0.19812	-0.046816	-0.15316	-0.008669	-0.046816	0.031938	-0.008669	0	0	0	-0.14172	-0.013526	0.056816	-0.12584	0.088305	0.11688	-0.1131	-0.06818	0.15213
430	4.0269	-0.094234	0.06576	0.1089	0.047754	0.25122	0.21017	0.024022	0.26984	0.19889	-0.046816	-0.15316	-0.008669	-0.046816	0.031938	-0.008669	0	0	0	-0.14192	-0.01331	0.05677	-0.12564	0.088331	0.11706	-0.11334	-0.068314	0.15191
